<mxfile host="app.diagrams.net" modified="2021-11-25T15:14:18.628Z" agent="5.0 (Windows NT 10.0; Win64; x64) AppleWebKit/537.36 (KHTML, like Gecko) Chrome/96.0.4664.45 Safari/537.36" etag="E7zbILFzoIGKQAzO1F6o" version="15.8.6" type="github">
  <diagram id="kgpKYQtTHZ0yAKxKKP6v" name="Page-1">
    <mxGraphModel dx="1422" dy="762" grid="1" gridSize="10" guides="1" tooltips="1" connect="1" arrows="1" fold="1" page="1" pageScale="1" pageWidth="850" pageHeight="1100" math="0" shadow="0">
      <root>
        <mxCell id="0" />
        <mxCell id="1" parent="0" />
        <mxCell id="oJJegSFmQFO6jVuSpwPJ-3" style="edgeStyle=orthogonalEdgeStyle;rounded=0;orthogonalLoop=1;jettySize=auto;html=1;exitX=0.5;exitY=1;exitDx=0;exitDy=0;entryX=0;entryY=0.5;entryDx=0;entryDy=0;" edge="1" parent="1" source="oJJegSFmQFO6jVuSpwPJ-1" target="oJJegSFmQFO6jVuSpwPJ-2">
          <mxGeometry relative="1" as="geometry" />
        </mxCell>
        <mxCell id="oJJegSFmQFO6jVuSpwPJ-5" style="edgeStyle=orthogonalEdgeStyle;rounded=0;orthogonalLoop=1;jettySize=auto;html=1;exitX=1;exitY=0.5;exitDx=0;exitDy=0;entryX=0;entryY=0.5;entryDx=0;entryDy=0;" edge="1" parent="1" source="oJJegSFmQFO6jVuSpwPJ-1" target="oJJegSFmQFO6jVuSpwPJ-4">
          <mxGeometry relative="1" as="geometry" />
        </mxCell>
        <mxCell id="oJJegSFmQFO6jVuSpwPJ-1" value="Frontend&lt;br&gt;loadIndex()" style="rounded=0;whiteSpace=wrap;html=1;" vertex="1" parent="1">
          <mxGeometry x="180" y="90" width="120" height="60" as="geometry" />
        </mxCell>
        <mxCell id="oJJegSFmQFO6jVuSpwPJ-7" style="edgeStyle=orthogonalEdgeStyle;rounded=0;orthogonalLoop=1;jettySize=auto;html=1;exitX=1;exitY=0.5;exitDx=0;exitDy=0;" edge="1" parent="1" source="oJJegSFmQFO6jVuSpwPJ-2" target="oJJegSFmQFO6jVuSpwPJ-6">
          <mxGeometry relative="1" as="geometry" />
        </mxCell>
        <mxCell id="oJJegSFmQFO6jVuSpwPJ-2" value="Frontend subscribtion&lt;br&gt;computeIndexProgressData()" style="rounded=0;whiteSpace=wrap;html=1;" vertex="1" parent="1">
          <mxGeometry x="320" y="250" width="200" height="60" as="geometry" />
        </mxCell>
        <mxCell id="oJJegSFmQFO6jVuSpwPJ-9" style="edgeStyle=orthogonalEdgeStyle;rounded=0;orthogonalLoop=1;jettySize=auto;html=1;exitX=1;exitY=0.5;exitDx=0;exitDy=0;" edge="1" parent="1" source="oJJegSFmQFO6jVuSpwPJ-4" target="oJJegSFmQFO6jVuSpwPJ-8">
          <mxGeometry relative="1" as="geometry" />
        </mxCell>
        <mxCell id="oJJegSFmQFO6jVuSpwPJ-4" value="Backend&lt;br&gt;indexLoader.load()" style="rounded=0;whiteSpace=wrap;html=1;" vertex="1" parent="1">
          <mxGeometry x="400" y="10" width="120" height="60" as="geometry" />
        </mxCell>
        <mxCell id="oJJegSFmQFO6jVuSpwPJ-6" value="Visualize progress" style="rounded=0;whiteSpace=wrap;html=1;" vertex="1" parent="1">
          <mxGeometry x="610" y="250" width="120" height="60" as="geometry" />
        </mxCell>
        <mxCell id="oJJegSFmQFO6jVuSpwPJ-8" value="Load index in Elasticsearch" style="rounded=0;whiteSpace=wrap;html=1;" vertex="1" parent="1">
          <mxGeometry x="610" y="10" width="120" height="60" as="geometry" />
        </mxCell>
      </root>
    </mxGraphModel>
  </diagram>
</mxfile>
